<?xml version="1.0" encoding="utf-8"?>
<svg version="1.1" id="Layer_1" xmlns="http://www.w3.org/2000/svg" xmlns:xlink="http://www.w3.org/1999/xlink" x="0px" y="0px"
	 viewBox="0 0 1045.3 380" style="enable-background:new 0 0 1045.3 380;" xml:space="preserve">
<style type="text/css">
	.st0{fill:#FFFFFF;}
	.st1{fill:#270066;}
</style>
<polygon class="st0" points="46.1,45.9 46.1,333.9 909.4,333.9 999.4,171.2 999.4,45.9 "/>
<path class="st1" d="M719.2,45.9H46.1v288h863.3l90-162.7V45.9H719.2z M267.7,145.2h-57v132.3h-60.2V145.2H96.9V96.4h170.3
	L267.7,145.2z M451.1,145.2h-96.4v18.9h79.6v45.7h-79.6v18.9h96.4v48.9H298.7V96.4h152.4V145.2z M661.5,277.5h-55.1l-68.8-99.2v99.2
	h-56.2V96.4h70.3l52.3,74.9V96.4h56.3L661.5,277.5z M985.3,167.4L901,319.5H719.2V59.9h266.1L985.3,167.4z"/>
<polygon class="st1" points="804.2,277.6 871.3,277.6 937.1,155.1 937.1,96.4 769.2,96.4 769.2,145.4 875.4,145.4 "/>
</svg>
